<?xml version="1.0" encoding="utf-8"?>
<!-- Generator: Adobe Illustrator 21.1.0, SVG Export Plug-In . SVG Version: 6.00 Build 0)  -->
<svg version="1.1" id="Layer_1" xmlns="http://www.w3.org/2000/svg" xmlns:xlink="http://www.w3.org/1999/xlink" x="0px" y="0px"
	 viewBox="0 0 220 78" style="enable-background:new 0 0 220 78;" xml:space="preserve">
<style type="text/css">
	.st0{fill:#72BE44;}
	.st1{fill:#231F20;}
	.st2{fill:#CE1037;}
</style>
<polygon class="st0" points="97.1,58.1 1.9,58.1 4,47.1 99.2,47.1 "/>
<path class="st1" d="M11.9,50H16v5.6h-1.3V51H13c0,0.7-0.1,1.7-0.1,2.4c-0.2,1.5-0.5,2.4-1.6,2.4c-0.3,0-0.5-0.1-0.5-0.1v-1.1
	c0,0,0.1,0,0.3,0c0.4,0,0.6-0.6,0.7-1.4C11.8,52.2,11.9,50,11.9,50z M25,52.7L25,52.7c0,1.8-1.2,3-2.8,3c-1.5,0-2.5-0.9-2.7-2.3
	l0-0.2h-0.7v2.4h-1.3V50h1.3v2.3h0.7c0.2-1.5,1.3-2.4,2.7-2.4C23.8,49.9,25,51,25,52.7z M23.7,52.8c0-1.2-0.5-1.9-1.5-1.9
	c-0.9,0-1.4,0.7-1.4,1.9v0.1c0,1.2,0.5,1.9,1.4,1.9S23.7,54,23.7,52.8L23.7,52.8z M30.8,54.7h0.8V57h-1.1l0-1.4h-3.8l0,1.4h-1.1
	v-2.3h0.4c0.4-0.1,0.5-0.7,0.6-1.5c0.1-1,0.2-2.4,0.2-3.2h4.1V54.7z M29.5,50.9h-1.7c0,0.7-0.1,1.6-0.1,2.3
	c-0.1,0.6-0.2,1.1-0.3,1.4h2.2V50.9z M34.7,50H37v5.6h-1.3v-2.1h-0.8l-1.3,2.1h-1.4l1.5-2.3c-0.7-0.2-1.2-0.6-1.2-1.5v0
	C32.6,50.6,33.4,50,34.7,50z M34.9,50.9c-0.7,0-1,0.3-1,0.9v0c0,0.6,0.3,0.8,1,0.8h0.8v-1.7H34.9z M41.7,53.5L40.2,50h-1.8v5.6h1.1
	v-4.3l1.7,4.3h0.4l1.8-4.3v4.3h1.3V50h-1.7L41.7,53.5z M53.5,53.9L53.5,53.9c0,1.1-0.8,1.7-2.1,1.7h-2.5V50h2.3
	c1.2,0,2.1,0.4,2.1,1.4v0c0,0.6-0.3,1.1-1,1.2C53,52.8,53.5,53.2,53.5,53.9z M50.2,52.3H51c0.6,0,0.9-0.2,0.9-0.7v0
	c0-0.5-0.3-0.7-1-0.7h-0.7V52.3z M52.1,54c0-0.5-0.3-0.8-1-0.8h-1v1.6h0.9C51.8,54.8,52.1,54.5,52.1,54L52.1,54z M59.7,55.6H61V50
	h-1.3V55.6z M59,53.7L59,53.7c0,1.3-0.9,1.9-2.2,1.9h-2.2V50h1.3v1.9h1C58.1,51.8,59,52.4,59,53.7z M57.7,53.7c0-0.6-0.3-0.9-1-0.9
	h-0.8v1.9h0.8C57.4,54.7,57.7,54.4,57.7,53.7L57.7,53.7z M62.4,55.6h1.3V51h2.5v-1h-3.8V55.6z M72.5,52.7L72.5,52.7
	c0,1.8-1.2,3-2.9,3s-2.9-1.2-2.9-2.9v-0.1c0-1.7,1.2-2.9,2.9-2.9C71.2,49.9,72.5,51,72.5,52.7z M71.1,52.8c0-1.2-0.6-1.9-1.6-1.9
	c-1,0-1.6,0.7-1.6,1.9v0.1c0,1.2,0.6,1.9,1.6,1.9C70.6,54.7,71.1,54,71.1,52.8L71.1,52.8z M78.2,54.7H79V57h-1.1l0-1.4h-3.8l0,1.4
	h-1.1v-2.3h0.4c0.4-0.1,0.5-0.7,0.6-1.5c0.1-1,0.2-2.4,0.2-3.2h4.1V54.7z M76.9,50.9h-1.7c0,0.7-0.1,1.6-0.1,2.3
	c-0.1,0.6-0.2,1.1-0.3,1.4h2.2V50.9z M83.6,52.3h-2.3V50H80v5.6h1.3v-2.4h2.3v2.4h1.3V50h-1.3V52.3z M91.8,52.7L91.8,52.7
	c0,1.8-1.2,3-2.9,3S86,54.6,86,52.9v-0.1c0-1.7,1.2-2.9,2.9-2.9C90.6,49.9,91.8,51,91.8,52.7z M90.5,52.8c0-1.2-0.6-1.9-1.6-1.9
	c-1,0-1.6,0.7-1.6,1.9v0.1c0,1.2,0.6,1.9,1.6,1.9C89.9,54.7,90.5,54,90.5,52.8L90.5,52.8z"/>
<path class="st2" d="M22.9,22.9c0.5-2.7-0.3-4.5-3.5-4.5H9.5L8.6,23H17c0.5,0,0.7,0.3,0.6,0.9l-1.1,5.6h-5.2l0.8-3.9L0,31.4h9
	l-0.8,3.9l7.9-3.8L15.1,37c-0.1,0.6-0.4,0.8-1,0.8H5.7l-0.9,4.7h9.9c3.2,0,4.7-1.9,5.2-4.5L22.9,22.9z M39.2,42.5l4.7-24.2h-11
	c-3.2,0-4.8,1.9-5.3,4.5L22,42.5h5.4l5.1-18.6c0.1-0.6,0.4-0.9,0.9-0.9h4.4L34,42.5H39.2z M56.7,31.3l-1.1,5.9
	c-0.1,0.6-0.5,0.9-1,0.9h-4.4l1.5-7.7h4.4C56.7,30.5,56.9,30.7,56.7,31.3 M62,30.7c0.5-2.7-0.3-4.6-3.5-4.6h-5.9l1.5-7.7h-5.2
	l-4.7,24.2h11.1c3.3,0,4.7-1.9,5.3-4.5L62,30.7z M79.1,23l-2.9,14.8h-5.5l3.8-13.9c0.1-0.6,0.4-0.9,0.9-0.9H79.1z M81.4,37.8
	l3.8-19.5H74.8c-3.2,0-4.8,1.9-5.3,4.5l-4.2,14.9h-2.2l-1,4.7H64h16.5H82l0.9-4.7H81.4z M99.4,23.9L96.9,37c-0.2,0.6-0.5,0.8-1,0.8
	h-3.7c-0.5,0-0.7-0.2-0.6-0.8l2.6-13.1c0.1-0.6,0.3-0.9,0.9-0.9h3.7C99.3,23,99.5,23.3,99.4,23.9 M104.7,22.9
	c0.5-2.7-0.3-4.5-3.5-4.5h-6.6c-3.2,0-4.8,1.9-5.4,4.5L86.3,38c-0.5,2.7,0.3,4.5,3.5,4.5h6.7c3.3,0,4.8-1.9,5.3-4.5L104.7,22.9z
	 M119.4,23.9l-1.2,6c-0.1,0.7-0.4,0.9-1,0.9h-4.4l1.6-7.8h4.4C119.3,23,119.5,23.3,119.4,23.9 M124.7,22.9c0.6-2.7-0.3-4.5-3.5-4.5
	h-11l-4.7,24.2h5l1.4-7h6c3.2,0,4.5-1.9,5.1-4.6L124.7,22.9z M135.3,24.7l-0.8,9.4h-3.6l4.1-9.4H135.3z M139.6,42.5l0.6-24.2h-7
	l-11.6,24.2h5.6l1.9-4.5h5l-0.4,4.5H139.6z M158.7,23l-2.9,14.8h-5.5l3.8-13.9c0.1-0.6,0.4-0.9,0.9-0.9H158.7z M161,37.8l3.8-19.5
	h-10.4c-3.2,0-4.8,1.9-5.3,4.5l-4.2,14.9h-2.2l-1,4.7h1.8h16.5h1.6l0.9-4.7H161z M179.6,23.9L177,37c-0.1,0.6-0.4,0.8-0.9,0.8h-3.7
	c-0.5,0-0.7-0.2-0.6-0.8l2.5-13.1c0.2-0.6,0.5-0.9,0.9-0.9h3.7C179.4,23,179.7,23.3,179.6,23.9 M181.3,18.4h-6.7
	c-3.2,0-4.7,1.9-5.2,4.5L166.5,38c-0.5,2.7,0.3,4.5,3.5,4.5h6.7c3.2,0,4.7-1.9,5.2-4.5l3-15.1C185.3,20.2,184.5,18.4,181.3,18.4
	 M189.9,37l-1.1,5.6h-5.1l1.1-5.6H189.9z M217.4,39.1c-0.4,2-1.5,3.4-3.9,3.4h-4.3c-2.4,0-3-1.4-2.6-3.4l2.6-13.5h3.7l-2.5,12.9
	c-0.1,0.3,0,0.5,0.2,0.5h2.7c0.3,0,0.4-0.1,0.5-0.5l2.5-12.9h3.7L217.4,39.1z M201.6,29.5l-0.9,4.2c-0.1,0.5-0.3,0.6-0.7,0.6H197
	l1.1-5.4h3.1C201.5,28.9,201.7,29.1,201.6,29.5 M202.8,25.6h-7.7l-3.3,16.9h3.5l1-4.9h1.7l0.8,4.9h3.9l-1-5c1.4-0.4,2.1-1.6,2.4-3.1
	l1.1-5.6C205.7,26.9,205.1,25.6,202.8,25.6"/>
</svg>
